<svg width="40" height="41" viewBox="0 0 40 41" fill="none" xmlns="http://www.w3.org/2000/svg">
<path fill-rule="evenodd" clip-rule="evenodd" d="M8.48686 2.49631C10.9139 1.4911 13.5156 0.975297 16.1425 0.978531C19.4315 0.978651 22.6696 1.78988 25.5702 3.34037C28.4708 4.89087 30.9442 7.13276 32.7714 9.86747C34.5986 12.6022 35.7232 15.7453 36.0455 19.0184C36.3678 22.2916 35.878 25.5937 34.6193 28.6323C33.3607 31.6709 31.3721 34.3522 28.8297 36.4387C26.2873 38.5252 23.2695 39.9525 20.0438 40.5942C16.818 41.2359 13.4838 41.0721 10.3364 40.1174C7.18906 39.1628 4.32571 37.4466 2 35.121L9.075 28.046C10.4731 29.4456 12.2549 30.399 14.195 30.7856C16.1351 31.1723 18.1463 30.9749 19.9741 30.2183C21.802 29.4617 23.3644 28.18 24.4636 26.5353C25.5629 24.8906 26.1496 22.9568 26.1496 20.9785C26.1496 19.0003 25.5629 17.0665 24.4636 15.4218C23.3644 13.7771 21.802 12.4953 19.9741 11.7388C18.1463 10.9822 16.1351 10.7847 14.195 11.1714C12.2549 11.5581 10.4731 12.5115 9.075 13.911L2 6.83603C3.85535 4.97633 6.05985 3.50152 8.48686 2.49631ZM13.3646 16.8211C14.1868 16.2717 15.1535 15.9784 16.1424 15.9784C17.4685 15.9784 18.7403 16.5052 19.6779 17.4429C20.6156 18.3806 21.1424 19.6524 21.1424 20.9784C21.1424 21.9674 20.8492 22.9341 20.2998 23.7563C19.7504 24.5785 18.9695 25.2194 18.0558 25.5978C17.1422 25.9763 16.1369 26.0753 15.167 25.8824C14.1971 25.6894 13.3061 25.2132 12.6069 24.514C11.9076 23.8147 11.4314 22.9238 11.2385 21.9539C11.0456 20.984 11.1446 19.9787 11.523 19.065C11.9015 18.1514 12.5423 17.3705 13.3646 16.8211Z" fill="#25D695"/>
</svg>
