<svg xmlns="http://www.w3.org/2000/svg" xmlns:xlink="http://www.w3.org/1999/xlink" width="500" zoomAndPan="magnify" viewBox="0 0 375 374.999991" height="500" preserveAspectRatio="xMidYMid meet" version="1.0"><defs><clipPath id="38c1d18f7e"><path d="M 51 39 L 310 39 L 310 342.816406 L 51 342.816406 Z M 51 39 " clip-rule="nonzero"/></clipPath></defs><g clip-path="url(#38c1d18f7e)"><path fill="#25d695" d="M 100.390625 51.222656 C 118.777344 43.609375 138.484375 39.703125 158.382812 39.730469 C 183.296875 39.730469 207.824219 45.875 229.796875 57.617188 C 251.769531 69.359375 270.503906 86.335938 284.347656 107.046875 C 298.1875 127.757812 306.707031 151.558594 309.148438 176.347656 C 311.589844 201.136719 307.878906 226.144531 298.34375 249.15625 C 288.808594 272.167969 273.746094 292.472656 254.488281 308.273438 C 235.230469 324.074219 212.371094 334.886719 187.933594 339.746094 C 163.5 344.605469 138.242188 343.363281 114.402344 336.132812 C 90.558594 328.90625 68.871094 315.90625 51.253906 298.296875 L 104.847656 244.714844 C 115.4375 255.316406 128.933594 262.535156 143.628906 265.460938 C 158.328125 268.390625 173.5625 266.894531 187.40625 261.167969 C 201.253906 255.4375 213.089844 245.730469 221.414062 233.273438 C 229.742188 220.820312 234.1875 206.175781 234.1875 191.191406 C 234.1875 176.210938 229.742188 161.566406 221.414062 149.109375 C 213.089844 136.65625 201.253906 126.949219 187.40625 121.21875 C 173.5625 115.488281 158.328125 113.992188 143.628906 116.921875 C 128.933594 119.851562 115.4375 127.070312 104.847656 137.667969 L 51.253906 84.089844 C 65.308594 70.003906 82.007812 58.835938 100.390625 51.222656 Z M 137.339844 159.707031 C 143.566406 155.546875 150.890625 153.324219 158.382812 153.324219 C 168.425781 153.324219 178.0625 157.316406 185.164062 164.417969 C 192.265625 171.519531 196.257812 181.148438 196.257812 191.191406 C 196.257812 198.679688 194.035156 206.003906 189.875 212.230469 C 185.710938 218.457031 179.796875 223.308594 172.875 226.175781 C 165.957031 229.042969 158.339844 229.789062 150.992188 228.328125 C 143.644531 226.867188 136.898438 223.261719 131.601562 217.96875 C 126.304688 212.671875 122.695312 205.925781 121.234375 198.578125 C 119.773438 191.234375 120.523438 183.621094 123.390625 176.699219 C 126.257812 169.78125 131.109375 163.867188 137.339844 159.707031 Z M 137.339844 159.707031 " fill-opacity="1" fill-rule="evenodd"/></g></svg>