<svg width="100" height="100" viewBox="0 0 100 100" fill="none" xmlns="http://www.w3.org/2000/svg">
<rect width="100" height="100" fill="#EEEEEE"/>
<path d="M48.7642 76.5625C54.3742 76.5625 59.9007 75.1737 64.4714 71.9193C66.4623 70.4624 68.1455 68.5968 69.3738 66.4587C70.6022 64.3206 71.3625 61.943 71.613 59.4929L60.7775 59.4533C60.193 61.8156 58.8328 63.9163 56.9078 65.4106C54.6137 67.1619 51.7746 67.8849 48.8938 67.8849C46.3536 67.8849 43.8353 67.3487 41.8093 65.8017C41.1237 65.226 40.5722 64.503 40.1876 63.6878C39.8031 62.8725 39.6031 61.9892 39.6031 61.0948C39.6031 60.0049 39.7481 58.9128 40.3063 57.9679C40.8644 57.023 41.706 56.2824 42.7081 55.8452C45.4702 54.7245 48.3379 53.8982 51.2714 53.3731C54.1479 52.7666 56.9782 51.9601 59.7359 50.9581C62.3619 50.0571 64.7636 48.5827 66.7479 46.6379C67.7082 45.6249 68.4487 44.4295 68.9322 43.1265C69.4134 41.8234 69.5562 40.4302 69.5584 39.0392C69.5584 36.9341 69.1695 34.84 68.3037 32.9194C67.4379 30.9988 66.148 29.2958 64.5417 27.9356C60.5314 24.7494 55.4861 23.4375 50.3683 23.4375C45.4966 23.4375 40.6842 24.6219 36.7289 27.4742C34.9687 28.8695 33.514 30.6209 32.4505 32.5986C31.3891 34.5807 30.7431 36.7605 30.5541 38.9953L40.882 39.0348C41.0116 38.0262 41.3479 37.0484 41.8642 36.1804C42.3828 35.3014 43.075 34.5433 43.8925 33.9434C45.8482 32.6381 48.1753 32.1305 50.5243 32.1305C52.7503 32.1305 54.9543 32.6008 56.8046 33.8401C57.5033 34.3323 58.0637 34.9784 58.4438 35.7387C58.8306 36.4968 59.0108 37.3362 59.0086 38.1844C59.0086 39.1139 58.6504 40.0039 58.1032 40.7466C57.5495 41.4916 56.7738 41.9618 55.9124 42.3595C53.3041 43.5637 50.5661 44.4801 47.7556 45.0866C44.5891 45.7765 41.4489 46.6335 38.3747 47.6663C35.7312 48.4992 33.3404 49.9802 31.4199 51.9733C29.4949 54.3223 28.75 57.313 28.75 60.3411C28.75 62.5451 29.1104 64.736 30.0267 66.7422C30.943 68.7485 32.312 70.5152 34.0282 71.8996C38.2253 75.1825 43.453 76.5625 48.7642 76.5625Z" fill="#121212"/>
</svg>
