<svg width="199" height="41" viewBox="0 0 199 41" fill="none" xmlns="http://www.w3.org/2000/svg">
<path d="M57.3791 11.4679C55.0106 11.4679 53.2003 12.352 51.948 14.1203C50.6957 15.8886 50.0695 18.3098 50.0695 21.384C50.0695 24.4853 50.6412 26.8929 51.7846 28.6068C52.9552 30.2935 54.8201 31.1368 57.3791 31.1368C58.5497 31.1368 59.7339 31.0008 60.9317 30.7288C62.1296 30.4567 63.4227 30.0759 64.8111 29.5862V34.7687C63.5316 35.2856 62.2657 35.6664 61.0134 35.9113C59.7611 36.1561 58.3591 36.2785 56.8074 36.2785C53.7856 36.2785 51.3082 35.6664 49.3753 34.4422C47.4425 33.1908 46.0132 31.4497 45.0876 29.2189C44.162 26.9609 43.6992 24.3357 43.6992 21.3432C43.6992 18.405 44.2301 15.807 45.2918 13.549C46.3535 11.291 47.8917 9.52272 49.9062 8.2441C51.948 6.96548 54.4389 6.32617 57.3791 6.32617C58.8219 6.32617 60.2648 6.5166 61.7076 6.89747C63.1777 7.25113 64.5797 7.74082 65.9137 8.36652L63.9127 13.3858C62.8238 12.8689 61.7212 12.42 60.6051 12.0392C59.5161 11.6583 58.4408 11.4679 57.3791 11.4679Z" fill="#EEEEEE"/>
<path d="M90.7709 24.6893C90.7709 28.3892 89.7909 31.2457 87.8308 33.2588C85.8979 35.2719 83.2572 36.2785 79.9087 36.2785C77.8397 36.2785 75.9885 35.8296 74.3551 34.9319C72.7489 34.0341 71.483 32.7283 70.5574 31.0144C69.6318 29.2733 69.169 27.165 69.169 24.6893C69.169 20.9895 70.1354 18.1466 72.0683 16.1607C74.0012 14.1747 76.6555 13.1817 80.0312 13.1817C82.1274 13.1817 83.9786 13.6306 85.5848 14.5284C87.191 15.4261 88.4569 16.732 89.3825 18.4459C90.3081 20.1597 90.7709 22.2409 90.7709 24.6893ZM75.376 24.6893C75.376 26.8929 75.7299 28.566 76.4377 29.7086C77.1727 30.824 78.357 31.3817 79.9904 31.3817C81.5966 31.3817 82.7536 30.824 83.4614 29.7086C84.1964 28.566 84.564 26.8929 84.564 24.6893C84.564 22.4857 84.1964 20.8399 83.4614 19.7517C82.7536 18.6363 81.583 18.0786 79.9496 18.0786C78.3434 18.0786 77.1727 18.6363 76.4377 19.7517C75.7299 20.8399 75.376 22.4857 75.376 24.6893Z" fill="#EEEEEE"/>
<path d="M108.254 13.1817C108.554 13.1817 108.908 13.1954 109.316 13.2226C109.724 13.2498 110.051 13.2906 110.296 13.345L109.847 19.058C109.629 19.0035 109.343 18.9627 108.989 18.9355C108.635 18.8811 108.322 18.8539 108.05 18.8539C107.016 18.8539 106.022 19.0444 105.069 19.4252C104.116 19.7789 103.34 20.3638 102.741 21.1799C102.17 21.9961 101.884 23.1115 101.884 24.5261V35.8705H95.7994V13.5898H100.414L101.312 17.3441H101.598C102.251 16.2015 103.15 15.2221 104.293 14.406C105.437 13.5898 106.757 13.1817 108.254 13.1817Z" fill="#EEEEEE"/>
<path d="M122.733 13.1817C125.809 13.1817 128.246 14.0659 130.043 15.8342C131.84 17.5753 132.738 20.0645 132.738 23.3019V26.24H118.364C118.418 27.9539 118.922 29.3005 119.875 30.2799C120.855 31.2593 122.202 31.7489 123.917 31.7489C125.333 31.7489 126.626 31.6129 127.797 31.3409C128.995 31.0416 130.22 30.5927 131.472 29.9942V34.687C130.356 35.2311 129.199 35.6256 128.001 35.8705C126.803 36.1425 125.347 36.2785 123.632 36.2785C121.399 36.2785 119.426 35.8705 117.71 35.0543C115.995 34.211 114.648 32.9596 113.668 31.3001C112.688 29.6134 112.198 27.4778 112.198 24.8934C112.198 22.3089 112.633 20.1461 113.504 18.405C114.403 16.6639 115.641 15.3581 117.22 14.4876C118.799 13.617 120.637 13.1817 122.733 13.1817ZM122.774 17.5073C121.576 17.5073 120.596 17.8882 119.834 18.6499C119.072 19.4116 118.622 20.595 118.486 22.2001H127.021C126.994 20.8671 126.626 19.7517 125.918 18.8539C125.238 17.9562 124.19 17.5073 122.774 17.5073Z" fill="#EEEEEE"/>
<path d="M158.13 13.5898V35.8705H153.475L152.658 33.014H152.332C151.624 34.1566 150.644 34.9863 149.391 35.5032C148.166 36.0201 146.86 36.2785 145.471 36.2785C143.076 36.2785 141.156 35.6392 139.713 34.3606C138.271 33.0548 137.549 30.9736 137.549 28.1171V13.5898H143.634V26.6073C143.634 28.2123 143.919 29.4229 144.491 30.2391C145.063 31.028 145.975 31.4225 147.227 31.4225C149.078 31.4225 150.344 30.7968 151.025 29.5454C151.705 28.2667 152.046 26.444 152.046 24.0772V13.5898H158.13Z" fill="#EEEEEE"/>
<path d="M190.685 13.1817C193.217 13.1817 195.123 13.8347 196.402 15.1405C197.709 16.4191 198.362 18.4867 198.362 21.3432V35.8705H192.278V22.853C192.278 19.6429 191.162 18.0378 188.929 18.0378C187.323 18.0378 186.18 18.6091 185.499 19.7517C184.819 20.8943 184.478 22.5402 184.478 24.6893V35.8705H178.394V22.853C178.394 19.6429 177.278 18.0378 175.045 18.0378C173.357 18.0378 172.187 18.6771 171.533 19.9557C170.907 21.2071 170.594 23.0162 170.594 25.3831V35.8705H164.51V13.5898H169.165L169.982 16.4463H170.308C170.989 15.3037 171.915 14.474 173.085 13.9571C174.283 13.4402 175.522 13.1817 176.801 13.1817C178.435 13.1817 179.809 13.4538 180.926 13.9979C182.069 14.5148 182.954 15.3309 183.58 16.4463H184.111C184.791 15.3037 185.731 14.474 186.928 13.9571C188.153 13.4402 189.406 13.1817 190.685 13.1817Z" fill="#EEEEEE"/>
<path fill-rule="evenodd" clip-rule="evenodd" d="M6.48686 2.49631C8.91386 1.4911 11.5156 0.975297 14.1425 0.978531C17.4315 0.978651 20.6696 1.78988 23.5702 3.34037C26.4708 4.89087 28.9442 7.13276 30.7714 9.86747C32.5986 12.6022 33.7232 15.7453 34.0455 19.0184C34.3678 22.2916 33.878 25.5937 32.6193 28.6323C31.3607 31.6709 29.3721 34.3522 26.8297 36.4387C24.2873 38.5252 21.2695 39.9525 18.0438 40.5942C14.818 41.2359 11.4838 41.0721 8.33642 40.1174C5.18906 39.1628 2.32571 37.4466 0 35.121L7.075 28.046C8.47312 29.4456 10.2549 30.399 12.195 30.7856C14.1351 31.1723 16.1463 30.9749 17.9741 30.2183C19.802 29.4617 21.3644 28.18 22.4636 26.5353C23.5629 24.8906 24.1496 22.9568 24.1496 20.9785C24.1496 19.0003 23.5629 17.0665 22.4636 15.4218C21.3644 13.7771 19.802 12.4953 17.9741 11.7388C16.1463 10.9822 14.1351 10.7847 12.195 11.1714C10.2549 11.5581 8.47312 12.5115 7.075 13.911L0 6.83603C1.85535 4.97633 4.05985 3.50152 6.48686 2.49631ZM11.3646 16.8211C12.1868 16.2717 13.1535 15.9784 14.1424 15.9784C15.4685 15.9784 16.7403 16.5052 17.6779 17.4429C18.6156 18.3806 19.1424 19.6524 19.1424 20.9784C19.1424 21.9674 18.8492 22.9341 18.2998 23.7563C17.7504 24.5785 16.9695 25.2194 16.0558 25.5978C15.1422 25.9763 14.1369 26.0753 13.167 25.8824C12.1971 25.6894 11.3061 25.2132 10.6069 24.514C9.90761 23.8147 9.43141 22.9238 9.23848 21.9539C9.04556 20.984 9.14458 19.9787 9.52301 19.065C9.90145 18.1514 10.5423 17.3705 11.3646 16.8211Z" fill="#25D695"/>
</svg>
